<svg width="24" height="21" viewBox="0 0 24 21" fill="none" xmlns="http://www.w3.org/2000/svg">
<path d="M3 6.59616C3 4.71054 3 3.76773 3.58579 3.18195C4.17157 2.59616 5.11438 2.59616 7 2.59616H17C18.8856 2.59616 19.8284 2.59616 20.4142 3.18195C21 3.76773 21 4.71054 21 6.59616V14.1731C21 16.0587 21 17.0015 20.4142 17.5873C19.8284 18.1731 18.8856 18.1731 17 18.1731H7C5.11438 18.1731 4.17157 18.1731 3.58579 17.5873C3 17.0015 3 16.0587 3 14.1731V6.59616Z" stroke="#222222"/>
<path d="M3 10.3846V10.3846C3 10.9388 3 11.216 3.05456 11.4447C3.22953 12.1784 3.80237 12.7512 4.53605 12.9262C4.76482 12.9808 5.04193 12.9808 5.59615 12.9808H6.72241C7.29317 12.9808 7.57855 12.9808 7.80877 13.112C7.85716 13.1396 7.90315 13.1711 7.94628 13.2064C8.15149 13.374 8.25406 13.6404 8.45922 14.173L8.50653 14.2958C8.74535 14.9158 8.86476 15.2258 9.1205 15.4014C9.37624 15.5769 9.70845 15.5769 10.3729 15.5769H13.6271C14.2915 15.5769 14.6238 15.5769 14.8795 15.4014C15.1352 15.2258 15.2546 14.9158 15.4935 14.2958L15.5408 14.173C15.7459 13.6404 15.8485 13.374 16.0537 13.2064C16.0968 13.1711 16.1428 13.1396 16.1912 13.112C16.4214 12.9808 16.7068 12.9808 17.2776 12.9808H18.4038C18.9581 12.9808 19.2352 12.9808 19.464 12.9262C20.1976 12.7512 20.7705 12.1784 20.9454 11.4447C21 11.216 21 10.9388 21 10.3846V10.3846" stroke="#222222"/>
<path d="M9.5 8.22114L12 6.05768M12 6.05768L14.5 8.22114M12 6.05768L12 12.1154" stroke="#222222"/>
</svg>
