<?xml version="1.0" encoding="utf-8"?><!-- Uploaded to: SVG Repo, www.svgrepo.com, Generator: SVG Repo Mixer Tools -->
<svg version="1.1" id="Uploaded to svgrepo.com" xmlns="http://www.w3.org/2000/svg" xmlns:xlink="http://www.w3.org/1999/xlink" 
	 width="800px" height="800px" viewBox="0 0 32 32" xml:space="preserve">
<style type="text/css">
	.feather_een{fill:#0B1719;}
</style>
<path class="feather_een" d="M4,5v22c0,1.657,1.343,3,3,3h18c1.657,0,3-1.343,3-3V5c0-1.657-1.343-3-3-3H7C5.343,2,4,3.343,4,5z
	 M21,27c0,1.103-0.897,2-2,2H7c-1.103,0-2-0.897-2-2V5c0-1.103,0.897-2,2-2h12c1.103,0,2,0.897,2,2V27z M27,27c0,1.103-0.897,2-2,2
	h-3.779C21.7,28.468,22,27.772,22,27v-2h1.5c0.276,0,0.5-0.224,0.5-0.5S23.776,24,23.5,24H22v-1h1.5c0.276,0,0.5-0.224,0.5-0.5
	S23.776,22,23.5,22H22v-1h1.5c0.276,0,0.5-0.224,0.5-0.5S23.776,20,23.5,20H22v-1h1.5c0.276,0,0.5-0.224,0.5-0.5S23.776,18,23.5,18
	H22v-1h1.5c0.276,0,0.5-0.224,0.5-0.5S23.776,16,23.5,16H22v-1h1.5c0.276,0,0.5-0.224,0.5-0.5S23.776,14,23.5,14H22v-1h1.5
	c0.276,0,0.5-0.224,0.5-0.5S23.776,12,23.5,12H22v-1h1.5c0.276,0,0.5-0.224,0.5-0.5S23.776,10,23.5,10H22V9h1.5
	C23.776,9,24,8.776,24,8.5S23.776,8,23.5,8H22V7h1.5C23.776,7,24,6.776,24,6.5S23.776,6,23.5,6H22V5c0-0.772-0.3-1.468-0.779-2H25
	c1.103,0,2,0.897,2,2V27z M17,6H9C8.448,6,8,6.448,8,7v6c0,0.552,0.448,1,1,1h8c0.552,0,1-0.448,1-1V7C18,6.448,17.552,6,17,6z
	 M17,13H9V7h8V13z M18,16.5c0,0.276-0.224,0.5-0.5,0.5h-9C8.224,17,8,16.776,8,16.5S8.224,16,8.5,16h9C17.776,16,18,16.224,18,16.5z
	 M18,22.5c0,0.276-0.224,0.5-0.5,0.5h-9C8.224,23,8,22.776,8,22.5S8.224,22,8.5,22h9C17.776,22,18,22.224,18,22.5z M18,20.5
	c0,0.276-0.224,0.5-0.5,0.5h-9C8.224,21,8,20.776,8,20.5S8.224,20,8.5,20h9C17.776,20,18,20.224,18,20.5z M18,18.5
	c0,0.276-0.224,0.5-0.5,0.5h-9C8.224,19,8,18.776,8,18.5S8.224,18,8.5,18h9C17.776,18,18,18.224,18,18.5z M14,24.5
	c0,0.276-0.224,0.5-0.5,0.5h-5C8.224,25,8,24.776,8,24.5S8.224,24,8.5,24h5C13.776,24,14,24.224,14,24.5z"/>
</svg>