<svg width="99" height="99" viewBox="0 0 99 99" fill="none" xmlns="http://www.w3.org/2000/svg">
<path d="M28.875 43.312H70.125V45.375H28.875V43.312Z" fill="black"/>
<path d="M28.875 35.062H48.469V37.125H28.875V35.062Z" fill="black"/>
<path d="M28.875 51.562H70.125V53.625H28.875V51.562Z" fill="black"/>
<path d="M28.875 59.812H70.125V61.875H28.875V59.812Z" fill="black"/>
<path d="M28.875 68.062H70.125V70.125H28.875V68.062Z" fill="black"/>
<path d="M28.875 76.312H70.125V78.375H28.875V76.312Z" fill="black"/>
<path d="M18.562 8.25V90.75H80.438V30.511L58.177 8.25H18.562ZM58.799 11.788L76.899 29.889C76.903 29.893 76.903 29.899 76.899 29.903C76.897 29.905 76.895 29.906 76.892 29.906H58.781V11.795C58.781 11.79 58.786 11.785 58.792 11.785C58.794 11.785 58.797 11.786 58.799 11.788ZM20.625 88.688V10.312H56.719V31.969H78.375V88.688H20.625Z" fill="black"/>
</svg>
