<svg width="99" height="99" viewBox="0 0 99 99" fill="none" xmlns="http://www.w3.org/2000/svg">
<path d="M34.031 28.448L30.635 25.052L29.177 26.51L34.031 31.364L44.042 21.354L42.583 19.896L34.031 28.448Z" fill="black"/>
<path d="M50.531 25.781H70.125V27.844H50.531V25.781Z" fill="black"/>
<path d="M34.031 43.917L30.635 40.521L29.177 41.979L34.031 46.833L44.042 36.823L42.583 35.365L34.031 43.917Z" fill="black"/>
<path d="M50.531 41.25H70.125V43.312H50.531V41.25Z" fill="black"/>
<path d="M34.031 59.386L30.635 55.99L29.177 57.448L34.031 62.302L44.042 52.292L42.583 50.833L34.031 59.386Z" fill="black"/>
<path d="M50.531 56.719H70.125V58.781H50.531V56.719Z" fill="black"/>
<path d="M34.031 74.854L30.635 71.458L29.177 72.917L34.031 77.771L44.042 67.76L42.583 66.302L34.031 74.854Z" fill="black"/>
<path d="M50.531 72.188H70.125V74.25H50.531V72.188Z" fill="black"/>
<path d="M18.562 90.75H80.438V8.25H18.562V90.75ZM20.625 10.312H78.375V88.688H20.625V10.312Z" fill="black"/>
</svg>
