<svg width="198" height="99" viewBox="0 0 198 99" fill="none" xmlns="http://www.w3.org/2000/svg">
<path d="M179.438 67.031C179.334 64.453 178.097 61.875 175.931 60.122C173.147 57.75 169.331 55.584 164.175 53.522C167.062 52.8 169.537 51.253 169.641 51.15C169.95 50.944 170.053 50.737 170.156 50.428C170.156 50.119 170.053 49.809 169.847 49.603C169.847 49.603 166.65 46.509 166.341 43.209C166.237 41.869 166.753 39.084 167.372 36.094C168.094 32.278 168.919 27.947 168.919 24.441C168.919 19.388 167.578 16.603 164.278 14.644C162.834 13.819 160.359 14.128 159.122 14.334C158.194 13.097 155.822 10.622 150.769 8.97199C145.303 7.52799 139.631 8.25 134.681 11.034C130.247 13.922 128.391 18.459 128.391 26.606C128.391 30.628 128.597 34.134 128.803 37.228C129.009 40.734 129.216 43.519 128.906 45.375C128.7 47.231 127.669 48.881 126.638 50.222C126.431 50.428 126.431 50.737 126.431 51.047C126.431 51.356 126.638 51.562 126.947 51.769C127.153 51.872 129.422 53.109 132.309 53.728C127.256 55.688 123.544 57.853 120.862 60.122C118.903 61.875 117.666 64.453 117.562 67.031V84.562L117.975 84.872C122.822 88.069 135.816 89.719 148.809 89.719C161.803 89.719 174.694 88.069 179.025 84.872L179.438 84.562V67.031ZM136.95 54.038L138.703 53.316C138.806 53.316 138.909 53.212 139.013 53.212C139.116 53.212 139.116 53.212 139.219 53.109C140.559 52.388 141.281 51.047 141.281 49.5V47.644C143.447 48.778 145.922 49.397 148.5 49.397C151.078 49.397 153.553 48.778 155.719 47.644V49.5C155.719 51.047 156.544 52.388 157.884 53.109H157.987C158.091 53.212 158.194 53.212 158.297 53.316L160.05 54.038L159.844 54.862C157.575 56.616 153.244 57.75 148.5 57.75C143.756 57.75 139.322 56.616 137.156 54.862L136.95 54.038ZM148.5 47.438C141.075 47.438 135.094 41.456 135.094 34.031V29.906C139.219 29.7 144.891 28.153 148.088 26.812L149.119 26.297C152.109 24.75 154.172 23.822 156.853 21.244C157.059 22.481 157.678 26.503 158.606 28.256C159.638 30.009 160.772 30.834 161.494 31.35C161.597 31.453 161.7 31.453 161.803 31.556V34.031C161.906 41.456 155.925 47.438 148.5 47.438ZM163.969 30.938C163.969 30.731 163.866 30.422 163.659 30.216C163.453 29.906 163.041 29.7 162.731 29.494C162.009 29.081 161.184 28.462 160.463 27.122C159.844 26.091 159.225 23.203 158.916 20.831C158.812 20.419 158.606 20.006 158.4 19.697C157.987 19.284 157.472 19.078 156.956 19.078C156.441 19.078 155.925 19.284 155.616 19.594C153.037 21.862 151.284 22.791 148.294 24.234L147.263 24.75C144.066 26.194 137.981 27.741 134.062 27.741C133.444 27.741 133.031 28.153 133.031 28.772V33.928C133.031 38.981 135.506 43.416 139.219 46.303V49.5C139.219 50.325 138.703 51.047 137.981 51.356C135.197 52.594 131.072 51.15 129.216 50.325C130.144 48.984 130.866 47.438 131.175 45.581C131.484 43.519 131.278 40.631 131.072 37.022C130.866 33.928 130.659 30.525 130.659 26.503C130.659 19.181 132.206 15.159 135.919 12.788C140.353 10.312 145.406 9.591 150.356 10.931C156.028 12.684 157.884 15.881 157.884 15.881C158.091 16.294 158.606 16.5 159.019 16.397C160.359 16.087 162.628 15.881 163.453 16.397C165.722 17.634 167.062 19.388 167.062 24.337C167.062 27.638 166.237 31.866 165.516 35.578C164.897 38.878 164.381 41.663 164.484 43.312C164.691 46.2 166.547 48.778 167.681 50.119C165.825 51.047 161.906 52.8 159.122 51.459C158.4 51.15 157.987 50.428 157.987 49.603V46.406C161.7 43.622 164.175 39.084 164.175 34.031L163.969 30.938ZM119.625 67.031C119.625 64.969 120.656 63.112 122.306 61.566C125.194 59.091 129.319 56.925 134.991 54.759L144.066 87.656C133.65 87.347 123.853 85.903 119.625 83.531V67.031ZM146.231 87.656L137.981 57.75C140.662 59.091 144.478 59.812 148.5 59.812C152.522 59.812 156.338 59.091 159.019 57.75L150.769 87.656C149.222 87.759 147.778 87.656 146.231 87.656ZM152.934 87.656L162.009 54.862C167.681 57.028 171.806 59.194 174.694 61.669C176.344 63.112 177.375 64.969 177.375 67.031V83.531C173.456 86.006 163.556 87.347 152.934 87.656Z" fill="black"/>
<path d="M29.785 31.247C30.438 31.255 31.1851 31.254 31.9841 31.247C32.1581 40.352 39.68 47.593 48.785 47.419C57.693 47.249 64.855 40.034 64.959 31.125C65.26 30.108 67.1691 23.163 64.8751 18.771C63.3981 15.673 60.216 13.753 56.787 13.89C55.101 12.555 48.0311 7.78898 38.0911 12.482C29.9441 16.326 29.708 24.754 29.719 26.019L28.79 29.985C28.661 30.539 29.0051 31.094 29.5591 31.224C29.6321 31.241 29.707 31.25 29.782 31.251L29.785 31.247ZM48.469 45.375C40.597 45.364 34.1831 39.053 34.0441 31.183C37.8991 31.023 42.4481 30.523 45.3101 29.171C49.055 27.403 53.7871 23.422 55.2761 22.129C56.7061 22.788 57.9711 23.755 58.9811 24.962C59.8261 25.995 60.5571 27.114 61.1611 28.303C61.6441 29.164 62.1931 30.137 62.8921 31.217C62.7351 39.074 56.327 45.364 48.469 45.375ZM31.756 26.357C31.777 26.268 31.7861 26.177 31.7831 26.085C31.7731 25.749 31.595 17.823 38.972 14.341C41.37 13.156 44.0021 12.521 46.6761 12.484C49.9881 12.441 53.206 13.581 55.751 15.701C55.986 15.922 56.3101 16.022 56.6291 15.971C59.3461 15.727 61.9201 17.23 63.0431 19.715C64.3301 22.179 63.9591 25.869 63.5071 28.263C63.3141 27.925 63.1321 27.601 62.9581 27.291C62.2861 25.977 61.473 24.74 60.534 23.601C59.1751 21.906 57.3561 20.639 55.2961 19.952C54.9671 19.873 54.6201 19.96 54.3671 20.186C54.3101 20.237 48.5731 25.352 44.4351 27.301C41.0761 28.886 34.7041 29.158 31.0991 29.18L31.756 26.357Z" fill="black"/>
<path d="M78.925 61.385C74.191 57.741 68.768 55.094 62.984 53.603C61.651 53.204 60.31 52.86 58.997 52.579L58.474 52.467L58.081 52.831C53.879 56.719 51.03 56.719 49.5 56.719C47.97 56.719 45.098 56.719 40.916 52.883L40.525 52.524L40.009 52.633C38.746 52.899 37.412 53.224 36.032 53.6C30.317 55.275 24.926 57.905 20.088 61.378C17.869 63.116 16.552 65.761 16.5 68.578V84.562H18.562V68.578C18.608 66.403 19.625 64.363 21.334 63.018C25.965 59.703 31.12 57.193 36.585 55.593C37.729 55.283 38.853 55.003 39.921 54.768C43.931 58.293 47.008 58.781 49.5 58.781C51.992 58.781 55.052 58.287 59.08 54.709C60.174 54.956 61.287 55.248 62.404 55.583C67.926 56.999 73.105 59.518 77.627 62.989C79.357 64.335 80.389 66.387 80.438 68.578V84.562H82.5V68.578C82.45 65.765 81.137 63.123 78.925 61.385Z" fill="black"/>
</svg>
